<svg width="100" height="100" viewBox="0 0 100 100" xmlns="http://www.w3.org/2000/svg" xmlns:xlink="http://www.w3.org/1999/xlink">
    <defs>
        <circle id="a" cx="50" cy="50" r="50"/>
    </defs>
    <g fill="none" fill-rule="evenodd">
        <mask id="b" fill="#fff">
            <use xlink:href="#a"/>
        </mask>
        <use fill="#CBD5DD" xlink:href="#a"/>
        <path d="M49.877 63c15.23 0 28.12 10.483 32.448 25.737l.129.464A8.563 8.563 0 0 1 74.188 100H25.555a8.555 8.555 0 0 1-8.349-10.422l.09-.366C21.49 73.702 34.49 63 49.876 63zm-1-39c8.836 0 16 7.163 16 16v8c0 5.523-4.478 10-10 10h-12c-5.523 0-10-4.477-10-10v-8c0-8.837 7.163-16 16-16z" fill="#647784" mask="url(#b)"/>
    </g>
</svg>
