<svg width="137" height="138" viewBox="0 0 137 138" xmlns="http://www.w3.org/2000/svg" xmlns:xlink="http://www.w3.org/1999/xlink">
    <defs>
        <linearGradient x1="50%" y1="0%" x2="50%" y2="36.766%" id="a">
            <stop stop-color="#3B3F4D" offset="0%"/>
            <stop stop-color="#262932" stop-opacity="0" offset="100%"/>
        </linearGradient>
        <linearGradient x1="50%" y1="0%" x2="50%" y2="100%" id="c">
            <stop stop-color="#303257" offset="0%"/>
            <stop stop-color="#212244" offset="100%"/>
        </linearGradient>
        <linearGradient x1="50%" y1="0%" x2="50%" y2="93.328%" id="d">
            <stop stop-color="#575C6F" offset="0%"/>
            <stop stop-color="#313540" offset="100%"/>
        </linearGradient>
        <linearGradient x1="50%" y1="0%" x2="50%" y2="100%" id="e">
            <stop stop-color="#303257" offset="0%"/>
            <stop stop-color="#212244" offset="100%"/>
        </linearGradient>
        <linearGradient x1="50%" y1="0%" x2="50%" y2="93.328%" id="g">
            <stop stop-color="#444857" offset="0%"/>
            <stop stop-color="#31343D" offset="100%"/>
        </linearGradient>
        <linearGradient x1="50%" y1="0%" x2="50%" y2="100%" id="h">
            <stop stop-color="#313266" offset="0%"/>
            <stop stop-color="#313255" offset="100%"/>
        </linearGradient>
        <linearGradient x1="50%" y1="0%" x2="50%" y2="93.328%" id="j">
            <stop stop-color="#5F6476" offset="0%"/>
            <stop stop-color="#3A3E4C" offset="100%"/>
        </linearGradient>
        <linearGradient x1="50%" y1="0%" x2="50%" y2="100%" id="m">
            <stop stop-color="#303257" offset="0%"/>
            <stop stop-color="#212244" offset="100%"/>
        </linearGradient>
        <linearGradient x1="50%" y1="0%" x2="50%" y2="93.328%" id="n">
            <stop stop-color="#575C6F" offset="0%"/>
            <stop stop-color="#313540" offset="100%"/>
        </linearGradient>
        <path d="M83.857 0H116l-11.41 19.523A5 5 0 0 1 100.275 22H76.228a3 3 0 0 1-2.59-4.514L83.858 0z" id="b"/>
        <path d="M13 0h90v61a3 3 0 0 1-3 3H21a8 8 0 0 1-8-8V0z" id="f"/>
        <path d="M13 0h32v61a3 3 0 0 1-3 3H16a3 3 0 0 1-3-3V0z" id="i"/>
        <path d="M12.857 0H45L33.011 20.514A3 3 0 0 1 30.421 22H5.228a3 3 0 0 1-2.59-4.514L12.858 0z" id="k"/>
        <path id="l" d="M38 8.034 60 0l-8.229 22-4.109-4.073h-5.681V12.09z"/>
    </defs>
    <g transform="translate(-2)" fill="none" fill-rule="evenodd">
        <ellipse fill="url(#a)" opacity=".5" cx="70.5" cy="143.5" rx="70.5" ry="21.5"/>
        <g transform="translate(13 65.5)">
            <g transform="matrix(-1 0 0 1 187 0)">
                <use fill="#1B1C38" xlink:href="#b"/>
                <use fill="url(#c)" xlink:href="#b"/>
                <use fill="url(#d)" xlink:href="#b"/>
            </g>
            <use fill="url(#e)" xlink:href="#f"/>
            <use fill="url(#g)" xlink:href="#f"/>
            <path d="M81 0v19h-.42c-.282-.916-1.155-1.583-2.189-1.583-1.033 0-1.907.667-2.188 1.582h-.515c-.28-.915-1.154-1.582-2.188-1.582-1.034 0-1.907.667-2.188 1.582h-.515c-.281-.915-1.155-1.582-2.188-1.582-1.034 0-1.907.667-2.188 1.582H66V0h15z" fill="#515564"/>
            <use fill="url(#h)" xlink:href="#i"/>
            <use fill="url(#j)" xlink:href="#i"/>
            <rect fill="#515564" x="19" y="45" width="21" height="14" rx="2"/>
            <g>
                <use fill="#212244" xlink:href="#k"/>
                <use fill="url(#c)" xlink:href="#k"/>
                <use fill="url(#d)" xlink:href="#k"/>
            </g>
        </g>
        <path d="M41 49c16.17-7.46 21.97-14.706 17.4-21.738-3.325-3.848-8.99.111-7.945 6.387C51.927 40.135 66.99 41.526 77 24" stroke="#393D4A" stroke-width="2" stroke-linecap="round"/>
        <g transform="translate(41)">
            <use fill="#212244" xlink:href="#l"/>
            <use fill="url(#m)" xlink:href="#l"/>
            <use fill="url(#n)" xlink:href="#l"/>
        </g>
        <path fill="#515564" d="m83 18 18-18-18 12.14z"/>
    </g>
</svg>
