<svg width="137" height="123" viewBox="0 0 137 123" xmlns="http://www.w3.org/2000/svg" xmlns:xlink="http://www.w3.org/1999/xlink">
    <defs>
        <linearGradient x1="50%" y1="0%" x2="50%" y2="36.766%" id="a">
            <stop stop-color="#3B3F4D" offset="0%"/>
            <stop stop-color="#262932" stop-opacity="0" offset="100%"/>
        </linearGradient>
        <linearGradient x1="50%" y1="0%" x2="57.419%" y2="85.676%" id="b">
            <stop stop-color="#52576A" offset="0%"/>
            <stop stop-color="#52576A" stop-opacity="0" offset="100%"/>
        </linearGradient>
        <linearGradient x1="50%" y1="0%" x2="50%" y2="93.328%" id="d">
            <stop stop-color="#4B4C81" offset="0%"/>
            <stop stop-color="#212244" offset="100%"/>
        </linearGradient>
        <linearGradient x1="50%" y1="0%" x2="50%" y2="93.328%" id="e">
            <stop stop-color="#575C6F" offset="0%"/>
            <stop stop-color="#313540" offset="100%"/>
        </linearGradient>
        <linearGradient x1="50%" y1="0%" x2="50%" y2="93.328%" id="g">
            <stop stop-color="#4B4C81" offset="0%"/>
            <stop stop-color="#212244" offset="100%"/>
        </linearGradient>
        <linearGradient x1="50%" y1="0%" x2="50%" y2="93.328%" id="h">
            <stop stop-color="#575C6F" offset="0%"/>
            <stop stop-color="#313540" offset="100%"/>
        </linearGradient>
        <linearGradient x1="50%" y1="0%" x2="50%" y2="93.328%" id="j">
            <stop stop-color="#4B4C81" offset="0%"/>
            <stop stop-color="#212244" offset="100%"/>
        </linearGradient>
        <linearGradient x1="50%" y1="0%" x2="50%" y2="93.328%" id="k">
            <stop stop-color="#575C6F" offset="0%"/>
            <stop stop-color="#313540" offset="100%"/>
        </linearGradient>
        <ellipse id="f" cx="47" cy="23.5" rx="25" ry="13"/>
        <ellipse id="i" cx="47" cy="39" rx="47" ry="17.5"/>
        <circle id="c" cx="3" cy="3" r="3"/>
    </defs>
    <g transform="translate(-2 -8)" fill="none" fill-rule="evenodd">
        <ellipse fill="url(#a)" opacity=".5" cx="70.5" cy="136.5" rx="70.5" ry="21.5"/>
        <g transform="translate(10)">
            <circle fill="#52576A" opacity=".5" cx="8" cy="89" r="8"/>
            <circle fill="#52576A" cx="122" cy="20" r="5"/>
            <path fill="url(#b)" d="m27.306 46.316-14.883 75.562 65.846-2.103L68.23 48.356z" transform="rotate(8 11.023 208.757)"/>
            <g transform="rotate(9 9.663 195.008)">
                <path fill="#434756" d="M46 5.5h3v8h-3z"/>
                <g transform="translate(44.5)">
                    <use fill="#47487B" xlink:href="#c"/>
                    <use fill="url(#d)" xlink:href="#c"/>
                    <use fill="url(#e)" xlink:href="#c"/>
                </g>
                <use fill="#D8D8D8" xlink:href="#f"/>
                <use fill="url(#g)" xlink:href="#f"/>
                <use fill="url(#h)" xlink:href="#f"/>
                <use fill="#D8D8D8" xlink:href="#i"/>
                <use fill="url(#j)" xlink:href="#i"/>
                <use fill="url(#k)" xlink:href="#i"/>
                <ellipse fill="#515564" transform="matrix(1 0 0 -1 0 94)" cx="47" cy="47" rx="19" ry="7.5"/>
                <ellipse fill="#515564" transform="rotate(-15 15.5 37.5)" cx="15.5" cy="37.5" rx="4.5" ry="3"/>
                <ellipse fill="#515564" transform="scale(-1 1) rotate(-16 0 628.518)" cx="82.5" cy="41.5" rx="4.5" ry="3"/>
                <ellipse fill="#515564" transform="rotate(-3 36.5 32.5)" cx="36.5" cy="32.5" rx="4.5" ry="3"/>
                <ellipse fill="#515564" transform="rotate(9 63.5 33.5)" cx="63.5" cy="33.5" rx="4.5" ry="3"/>
            </g>
        </g>
    </g>
</svg>
