<svg width="137" height="99" viewBox="0 0 137 99" xmlns="http://www.w3.org/2000/svg" xmlns:xlink="http://www.w3.org/1999/xlink">
    <defs>
        <linearGradient x1="50%" y1="0%" x2="50%" y2="36.766%" id="a">
            <stop stop-color="#3B3F4D" offset="0%"/>
            <stop stop-color="#262932" stop-opacity="0" offset="100%"/>
        </linearGradient>
        <linearGradient x1="55.641%" y1="-44.542%" x2="50%" y2="104.827%" id="c">
            <stop stop-color="#4B4C81" offset="0%"/>
            <stop stop-color="#212244" offset="100%"/>
        </linearGradient>
        <linearGradient x1="50%" y1="0%" x2="50%" y2="100%" id="d">
            <stop stop-color="#666A7C" offset="0%"/>
            <stop stop-color="#353842" offset="100%"/>
        </linearGradient>
        <linearGradient x1="50%" y1="0%" x2="50%" y2="127.102%" id="f">
            <stop stop-color="#4B4C81" offset="0%"/>
            <stop stop-color="#212244" offset="100%"/>
        </linearGradient>
        <linearGradient x1="50%" y1="0%" x2="50%" y2="93.328%" id="g">
            <stop stop-color="#575C6F" offset="0%"/>
            <stop stop-color="#313540" offset="100%"/>
        </linearGradient>
        <path d="m33.5 62.5 15 2.72-12.384 8.28.114-5.327L33.5 62.5zM15.097.086l54.806 7.72c4.748.67 8.597 5.077 8.597 9.844v38.844c0 2.355-.94 4.358-2.464 5.701l-6.464 5.978L59.5 63.341l.775-.783-45.178-6.365C10.349 55.524 6.5 51.117 6.5 46.35V10.396L2.19 8.06l6.666-6.163C10.426.462 12.64-.26 15.097.086z" id="b"/>
        <path d="m8.597 6.086 54.806 7.72c4.748.67 8.597 5.077 8.597 9.844v38.844c0 4.767-3.849 8.09-8.597 7.42l-21.83-3.795-5.457 7.381-7.87-9.697-18.574-3.228c-4.748-.67-8.597-5.076-8.597-9.844L0 13.506c0-4.767 3.849-8.09 8.597-7.42z" id="e"/>
    </defs>
    <g transform="translate(-2)" fill="none" fill-rule="evenodd">
        <ellipse fill="url(#a)" opacity=".5" cx="70.5" cy="104.5" rx="70.5" ry="21.5"/>
        <g transform="translate(32)">
            <use fill="#D8D8D8" xlink:href="#b"/>
            <use fill="url(#c)" xlink:href="#b"/>
            <use fill="url(#d)" xlink:href="#b"/>
        </g>
        <g transform="translate(32)">
            <use fill="#ECECEC" xlink:href="#e"/>
            <use fill="url(#f)" xlink:href="#e"/>
            <use fill="url(#g)" xlink:href="#e"/>
        </g>
        <path d="M50.154 40c3.016 0 5.168-2.462 4.806-5.5-.36-3.038-3.098-5.5-6.114-5.5s-5.168 2.462-4.806 5.5c.36 3.038 3.098 5.5 6.114 5.5zM69.154 43c3.016 0 5.168-2.462 4.806-5.5-.36-3.038-3.098-5.5-6.114-5.5s-5.168 2.462-4.806 5.5c.36 3.038 3.098 5.5 6.114 5.5zM88.154 46c3.016 0 5.168-2.462 4.806-5.5-.36-3.038-3.098-5.5-6.114-5.5s-5.168 2.462-4.806 5.5c.36 3.038 3.098 5.5 6.114 5.5z" fill="#666A7C"/>
    </g>
</svg>
