<svg width="24" height="24" viewBox="0 0 24 24" xmlns="http://www.w3.org/2000/svg">
    <g fill="#FFF" fill-rule="nonzero">
        <path d="M20 4a2 2 0 0 1 2 2v12a2 2 0 0 1-2 2H4a2 2 0 0 1-2-2V6a2 2 0 0 1 2-2h16zm0 1.5H4a.5.5 0 0 0-.492.41L3.5 6v12a.5.5 0 0 0 .41.492L4 18.5h16a.5.5 0 0 0 .492-.41L20.5 18V6a.5.5 0 0 0-.41-.492L20 5.5z"/>
        <path d="M5.26 8.162a.75.75 0 0 1 .913-.371l.094.04 5.732 3.4 5.734-3.4a.75.75 0 0 1 .956.243l.052.088a.75.75 0 0 1-.244.955l-.088.052-6.07 3.572a.75.75 0 0 1-.584.039l-.093-.04L5.59 9.17a.75.75 0 0 1-.332-1.008z"/>
    </g>
</svg>
