<svg width="24" height="24" viewBox="0 0 24 24" xmlns="http://www.w3.org/2000/svg">
    <g transform="translate(2 .5)" fill="none" fill-rule="evenodd">
        <path d="M15 3.5c0 .537.121 1.046.337 1.501L2 5a.5.5 0 0 0-.492.41L1.5 5.5v12a.5.5 0 0 0 .41.492L2 18h16a.5.5 0 0 0 .492-.41l.008-.09V7c.537 0 1.046-.121 1.501-.337L20 17.5a2 2 0 0 1-2 2H2a2 2 0 0 1-2-2v-12a2 2 0 0 1 2-2h13z" fill="#0C7DFF" fill-rule="nonzero"/>
        <circle fill="#F92770" cx="18.5" cy="3.5" r="2.5"/>
        <path d="M3.26 7.662a.75.75 0 0 1 .913-.371l.094.04 5.732 3.4 5.734-3.4a.75.75 0 0 1 .956.243l.052.088a.75.75 0 0 1-.244.955l-.088.052-6.07 3.572a.75.75 0 0 1-.584.039l-.093-.04L3.59 8.67a.75.75 0 0 1-.332-1.008z" fill="#0C7DFF" fill-rule="nonzero"/>
    </g>
</svg>
