<svg width="23" height="23" viewBox="0 0 23 23" xmlns="http://www.w3.org/2000/svg">
    <path d="m13.613 12.5.3.005c3.598.127 6.64 2.528 7.832 5.862l.09.265.087.283.04.163c.206 1.031-.438 2.06-1.502 2.347-.082.022-.165.04-.249.052l-.126.015-.191.008H15.08c.366-.623.511-1.375.361-2.128l-.048-.205-.078-.27-.095-.291c-.736-2.116-2.22-3.787-4.08-4.67.366-.381.663-.829.872-1.323a8.35 8.35 0 0 1 1.026-.106l.35-.007h.225zM8.08 14.741l.291.008c.387.02.764.08 1.128.175l.129.035c1.991.573 3.587 2.225 4.247 4.356l.07.244.03.137a1.539 1.539 0 0 1-1.379 1.798l-.136.006H3.538l-.14-.006a1.537 1.537 0 0 1-1.373-1.8l.03-.133.074-.257c.661-2.126 2.256-3.773 4.243-4.343l.128-.037a5.59 5.59 0 0 1 1.42-.183h.16zM8 7.5a2.851 2.851 0 0 1 2.851 2.851v.574l-.007.2a2.85 2.85 0 0 1-1.315 2.207l-.135.08a2.851 2.851 0 0 1-4.245-2.488v-.573l.005-.167A2.851 2.851 0 0 1 8 7.5zm5-5c2.142 0 3.891 1.772 3.995 3.998l.005.21v1.249l-.006.208c-.095 1.727-1.366 3.122-2.983 3.313l-.18.016-.198.006h-1.266l-.053-.001c.016-.125.027-.252.033-.38l.004-.194v-.574l-.005-.21A4.354 4.354 0 0 0 9.04 6.124C9.31 4.076 10.98 2.5 13 2.5z" fill="#FFB700" fill-rule="nonzero"/>
</svg>
