<svg width="22" height="23" viewBox="0 0 22 23" xmlns="http://www.w3.org/2000/svg">
    <path d="M10.297 11.845c1.487 0 2.889.397 4.12 1.099A5.496 5.496 0 0 0 12 17.5c0 1.576.663 2.998 1.726 4H3.663a2.19 2.19 0 0 1-2.154-2.579l.043-.19c1.096-3.983 4.493-6.886 8.514-6.886h.23zM17.5 13.5a4 4 0 1 1 0 8 4 4 0 0 1 0-8zm0 1a.75.75 0 0 0-.743.648l-.007.102v1.5h-1.5a.75.75 0 0 0-.743.648l-.007.102c0 .38.282.693.648.743l.102.007h1.5v1.5c0 .38.282.693.648.743l.102.007a.75.75 0 0 0 .743-.648l.007-.102v-1.5h1.5a.75.75 0 0 0 .743-.648l.007-.102a.75.75 0 0 0-.648-.743l-.102-.007h-1.5v-1.5a.75.75 0 0 0-.648-.743L17.5 14.5zm-7.319-13a4.138 4.138 0 0 1 4.138 4.138v1.828a3 3 0 0 1-3 3H9.043a3 3 0 0 1-3-3V5.638A4.138 4.138 0 0 1 10.181 1.5z" fill="#0C7DFF" fill-rule="evenodd"/>
</svg>
