<?xml version="1.0" encoding="UTF-8"?>
<svg width="18px" height="18px" viewBox="0 0 18 18" version="1.1" xmlns="http://www.w3.org/2000/svg" xmlns:xlink="http://www.w3.org/1999/xlink">
    <!-- Generator: Sketch 63.1 (92452) - https://sketch.com -->
    <title>ic_rmb</title>
    <desc>Created with Sketch.</desc>
    <g id="twitter_暗色UI" stroke="none" stroke-width="1" fill="none" fill-rule="evenodd">
        <g id="提现记录" transform="translate(-262.000000, -170.000000)">
            <g id="内容区" transform="translate(0.000000, 88.000000)">
                <g id="1" transform="translate(16.000000, 65.500000)">
                    <g id="编组-2" transform="translate(16.000000, 14.500000)">
                        <g id="编组-3" transform="translate(0.000000, 0.500000)">
                            <g id="钻石" transform="translate(230.000000, 0.000000)">
                                <g id="人民币" transform="translate(0.000000, 1.500000)">
                                    <g>
                                        <rect id="矩形" stroke="#FFCC25" stroke-width="1.5" fill="#CBA01F" x="0.75" y="0.75" width="16.5" height="16.5" rx="8.25"></rect>
                                        <path d="M9.08203125,14.1777344 C9.56510417,14.1321615 9.86816406,13.9794922 9.99121094,13.7197266 C10.1142578,13.4599609 10.1666667,13.3072917 10.1484375,13.2617188 L10.1484375,11.7304688 L12.4179688,11.7304688 C12.8645833,11.6848958 13.0878906,11.4866536 13.0878906,11.1357422 C13.0878906,10.7848307 12.8645833,10.5820312 12.4179688,10.5273438 L10.1484375,10.5273438 L10.1484375,9.40625 L12.4179688,9.40625 C12.8645833,9.36067708 13.0878906,9.1624349 13.0878906,8.81152344 C13.0878906,8.46061198 12.8645833,8.2578125 12.4179688,8.203125 L10.96875,8.203125 L12.8828125,5.76953125 C13.0651042,5.48697917 13.15625,5.24088542 13.15625,5.03125 C13.0559896,4.6484375 12.8531901,4.4000651 12.5478516,4.28613281 C12.242513,4.17220052 12.0716146,4.11979167 12.0351562,4.12890625 C11.7434896,4.17447917 11.5270182,4.25651042 11.3857422,4.375 C11.2444661,4.49348958 11.1783854,4.55729167 11.1875,4.56640625 L9.08203125,7.46484375 L6.9765625,4.56640625 C6.66666667,4.19270833 6.38411458,4.03776042 6.12890625,4.1015625 C5.69140625,4.12890625 5.390625,4.24283854 5.2265625,4.44335938 C5.0625,4.64388021 4.98046875,4.8125 4.98046875,4.94921875 C4.96223958,5.17708333 5.00325521,5.37076823 5.10351562,5.53027344 C5.20377604,5.68977865 5.26302083,5.76953125 5.28125,5.76953125 L7.1953125,8.203125 L5.74609375,8.203125 C5.29036458,8.2578125 5.0625,8.46061198 5.0625,8.81152344 C5.0625,9.1624349 5.29036458,9.36067708 5.74609375,9.40625 L8.015625,9.40625 L8.015625,10.5273438 L5.74609375,10.5273438 C5.29036458,10.5820312 5.0625,10.7848307 5.0625,11.1357422 C5.0625,11.4866536 5.29036458,11.6848958 5.74609375,11.7304688 L8.015625,11.7304688 L8.015625,13.2617188 C8.05208333,13.7083333 8.22753906,13.9772135 8.54199219,14.0683594 C8.85644531,14.1595052 9.03645833,14.1959635 9.08203125,14.1777344 Z" id="¥" fill="#FFF1C4" fill-rule="nonzero"></path>
                                    </g>
                                </g>
                            </g>
                        </g>
                    </g>
                </g>
            </g>
        </g>
    </g>
</svg>