<svg width="28" height="29" viewBox="0 0 28 29" xmlns="http://www.w3.org/2000/svg">
    <g fill="none" fill-rule="evenodd">
        <path d="M23 .5a2 2 0 0 1 2 2v13.96a7 7 0 0 0-7.259 11.674c-3.077.19-6.167.145-9.241-.134l-3.681-.335A2 2 0 0 1 3 25.674V2.5a2 2 0 0 1 2-2h18zm-5 11h-8a1 1 0 0 0-.117 1.993L10 13.5h8a1 1 0 0 0 0-2zm0-6h-8a1 1 0 0 0-.117 1.993L10 7.5h8a1 1 0 0 0 0-2z" fill="#00A7FF"/>
        <path d="M22.5 17.5a5.5 5.5 0 1 1 0 11 5.5 5.5 0 0 1 0-11zM22 19a.5.5 0 0 0-.5.5v4a.5.5 0 0 0 .5.5h4a.5.5 0 1 0 0-1h-3.5v-3.5a.5.5 0 0 0-.5-.5z" fill="#FFB700" fill-rule="nonzero"/>
    </g>
</svg>
