<svg width="28" height="29" viewBox="0 0 28 29" xmlns="http://www.w3.org/2000/svg" xmlns:xlink="http://www.w3.org/1999/xlink">
    <defs>
        <path d="M24 20c0 6.5-4.863 8-12 8S0 26 0 20c0-4.427 3.166-9.671 7.31-12.116C8.64 8.62 10.215 9 12.008 9a9.924 9.924 0 0 0 4.681-1.19C20.834 10.135 24 15.204 24 20zm-8.737-6.5a1.126 1.126 0 0 0-.738.374l-.078.101L12 17.644l-2.44-3.659c-.233-.281-.504-.44-.82-.485-.497.098-.74.34-.74.71 0 .181.03.339.094.471l.082.146a.367.367 0 0 0 .081.09l.036.023 2.088 3.207h-.989c-.528.047-.825.29-.825.712 0 .39.261.619.702.65l.116.005h1.79v.617H9.391c-.528.048-.825.291-.825.712 0 .391.261.62.702.651l.116.004h1.79v2.067c0 .493.302.768.825.768.437 0 .725-.221.807-.63l.016-.109.002-2.096h1.783c.472 0 .772-.217.824-.63-.046-.413-.287-.645-.679-.718l-.117-.017-1.811-.002v-.617h1.783c.472 0 .772-.218.824-.63-.046-.413-.287-.645-.679-.718l-.117-.017-1.018-.001 2.123-3.26.032-.11-.002.028c.16-.256.229-.438.229-.596-.052-.378-.285-.611-.663-.706l-.074-.004z" id="a"/>
    </defs>
    <g fill="none" fill-rule="evenodd">
        <g transform="translate(2 .5)">
            <use fill="#D8D8D8" xlink:href="#a"/>
            <use fill="#00A7FF" xlink:href="#a"/>
        </g>
        <path d="M10.714 2.24c2.233-2.32 4.423-2.32 6.569 0 1.339-1.078 2.578-1.078 3.717 0-.492 3.367-4.098 5.26-6.992 5.26-3.56 0-5.896-1.753-7.008-5.26 0-.199.392-.419 1.175-.66.783-.241 1.63-.021 2.539.66z" fill="#FFB700" fill-rule="nonzero"/>
    </g>
</svg>
