<svg width="28" height="29" viewBox="0 0 28 29" xmlns="http://www.w3.org/2000/svg" xmlns:xlink="http://www.w3.org/1999/xlink">
    <defs>
        <path d="M28 7v11.138a2 2 0 0 1-1.858 1.995L21 20.5a98.25 98.25 0 0 1-14 0l-5.142-.367A2 2 0 0 1 0 18.138V7h28zm-4 6h-4a1 1 0 0 0-.993.883L19 14v1a1 1 0 0 0 .883.993L20 16h4a1 1 0 0 0 .993-.883L25 15v-1a1 1 0 0 0-.883-.993L24 13z" id="a"/>
        <path d="M26 0a2 2 0 0 1 2 2v3H0V2a2 2 0 0 1 2-2h24z" id="b"/>
    </defs>
    <g fill="none" fill-rule="evenodd">
        <g transform="translate(0 4.5)">
            <use fill="#FFB700" xlink:href="#a"/>
            <use fill="#00A7FF" xlink:href="#a"/>
        </g>
        <g fill="#FFB700" transform="translate(0 4.5)">
            <use xlink:href="#b"/>
            <use xlink:href="#b"/>
        </g>
    </g>
</svg>
