<svg width="20" height="20" viewBox="0 0 20 20" xmlns="http://www.w3.org/2000/svg">
    <g fill="#7B87FF" fill-rule="evenodd">
        <path d="M8.823 10.345c1.481 0 2.878.394 4.107 1.09A5.496 5.496 0 0 0 10.5 16c0 1.576.663 2.998 1.726 4H2.189a2.19 2.19 0 0 1-2.154-2.579l.043-.19c1.096-3.983 4.493-6.886 8.514-6.886h.23zM8.707 0a4.138 4.138 0 0 1 4.138 4.138v1.828a3 3 0 0 1-3 3H7.57a3 3 0 0 1-3-3V4.138A4.138 4.138 0 0 1 8.707 0z"/>
        <path d="M16 12a4 4 0 1 1 0 8 4 4 0 0 1 0-8zm-1.06 1.879a.75.75 0 1 0-1.061 1.06L14.939 16l-1.06 1.06a.75.75 0 0 0-.073.977l.073.084a.75.75 0 0 0 1.06 0L16 17.061l1.06 1.06a.75.75 0 0 0 .977.073l.084-.073a.75.75 0 0 0 0-1.06L17.061 16l1.06-1.06a.75.75 0 0 0 .073-.977l-.073-.084a.75.75 0 0 0-1.06 0L16 14.939z"/>
    </g>
</svg>
