<svg width="20" height="21" viewBox="0 0 20 21" xmlns="http://www.w3.org/2000/svg">
    <g fill="none" fill-rule="evenodd">
        <path d="M10 1.25a4.237 4.237 0 0 0-3.005 1.245A4.237 4.237 0 0 0 5.75 5.5v4.25h8.5V5.5a4.237 4.237 0 0 0-1.245-3.005A4.237 4.237 0 0 0 10 1.25z" stroke="#06B8FF" stroke-width="1.5"/>
        <path d="M16 8.5a2 2 0 0 1 2 2v8a2 2 0 0 1-2 2H4a2 2 0 0 1-2-2v-8a2 2 0 0 1 2-2h12zm-6 3a3 3 0 1 0 0 6 3 3 0 0 0 0-6zm0 1.5a1.5 1.5 0 1 1 0 3 1.5 1.5 0 0 1 0-3z" fill="#06B8FF"/>
    </g>
</svg>
