<svg width="20" height="21" viewBox="0 0 20 21" xmlns="http://www.w3.org/2000/svg">
    <path d="M10 .5c5.523 0 10 4.477 10 10s-4.477 10-10 10-10-4.477-10-10S4.477.5 10 .5zm.063 7.531c-.542.052-.873.266-.993.64-.12.376-.164.6-.133.673v6.125c.032.562.193.903.485 1.023.292.12.505.17.64.149.563-.042.907-.206 1.032-.493.125-.286.177-.513.156-.68v-6.25c-.031-.562-.177-.905-.438-1.03a1.435 1.435 0 0 0-.75-.157zm.093-3.437c-.552.031-.919.198-1.101.5-.183.302-.263.573-.242.812.104.813.49 1.23 1.156 1.25.531-.01.898-.148 1.101-.414.203-.265.305-.586.305-.96-.094-.72-.5-1.115-1.219-1.188z" fill="#FFB700" fill-rule="evenodd"/>
</svg>
