<svg width="20" height="21" viewBox="0 0 20 21" xmlns="http://www.w3.org/2000/svg">
    <g transform="translate(-.026 .5)" fill="#0C7DFF" fill-rule="evenodd">
        <path d="M8.823 10.345c1.61 0 3.119.465 4.421 1.278-2.044.402-3.868 1.772-5.445 4.014l-.607.863.607.863c.766 1.089 1.59 1.972 2.469 2.638L2.189 20a2.19 2.19 0 0 1-2.154-2.579l.043-.19c1.096-3.983 4.493-6.886 8.514-6.886h.23zM8.707 0a4.138 4.138 0 0 1 4.138 4.138v1.828a3 3 0 0 1-3 3H7.57a3 3 0 0 1-3-3V4.138A4.138 4.138 0 0 1 8.707 0z"/>
        <path d="M14.526 13c2.025 0 3.858 1.167 5.5 3.5-1.642 2.333-3.475 3.5-5.5 3.5s-3.858-1.167-5.5-3.5c1.642-2.333 3.475-3.5 5.5-3.5zm0 1a2.5 2.5 0 1 0 0 5 2.5 2.5 0 0 0 0-5z"/>
        <rect transform="rotate(-15 14.523 16.5)" x="11.023" y="15.75" width="7" height="1.5" rx=".75"/>
    </g>
</svg>
