<svg width="20" height="20" viewBox="0 0 20 20" xmlns="http://www.w3.org/2000/svg">
    <g fill="#FFB700" fill-rule="evenodd">
        <path d="M8.797 10.345c1.487 0 2.889.397 4.12 1.099A5.496 5.496 0 0 0 10.5 16c0 1.576.663 2.998 1.726 4H2.163A2.19 2.19 0 0 1 .01 17.421l.043-.19c1.096-3.983 4.493-6.886 8.514-6.886h.23zM8.68 0a4.138 4.138 0 0 1 4.138 4.138v1.828a3 3 0 0 1-3 3H7.543a3 3 0 0 1-3-3V4.138A4.138 4.138 0 0 1 8.681 0z"/>
        <path d="M16 12a4 4 0 1 1 0 8 4 4 0 0 1 0-8zm-1.06 1.879a.75.75 0 1 0-1.061 1.06l3.182 3.182a.75.75 0 1 0 1.06-1.06z"/>
    </g>
</svg>
