<svg width="20" height="20" viewBox="0 0 20 20" xmlns="http://www.w3.org/2000/svg">
    <path d="M3.511 13.892c0-.389.039-.769.112-1.137l.062-.275c.176-.649.376-1.257.613-1.827l.323-.761C5.396 8.1 6.544 5.648 8.066 2.536L9.024.59C9.207.22 9.594 0 10 0l.135.008c.355.043.678.253.841.582l.958 1.946c1.522 3.112 2.67 5.564 3.445 7.356l.323.761c.237.57.437 1.178.613 1.827l.062.275c.073.368.112.748.112 1.137C16.489 17.265 13.584 20 10 20s-6.489-2.735-6.489-6.108z" fill="#06B8FF" fill-rule="evenodd"/>
</svg>
